PathFileType	4	(X/Y/Z)	C:/Users/opensim2020/Desktop/walking_exp_matlab/subject06_walking12_straigt_03.trc																																																																																																																																														
DataRate	CameraRate	NumFrames	NumMarkers	Units	OrigDataRate	OrigDataStartFrame	OrigNumFrames																																																																																																																																										
100	100	4	48	mm	100	2141	184																																																																																																																																										
Frame#	Time	LFHD			RFHD			LBHD			RBHD			C7			T10			CLAV			STRN			RBAK			LSHO			LUPA			LELB			LFRM			LWRA			LWRB			LFIN			RSHO			RUPA			RELB			RFRM			RWRA			RWRB			RFIN			LASI			RASI			LPSI			RPSI			LTHI			LKNE			LTIB			LANK			LHEE			LTOE			RTHI			RKNE			RTIB			RANK			RHEE			RTOE			*39			*40			*41			*42			*43			*44			*45			*46			*47		
		X1	Y1	Z1	X2	Y2	Z2	X3	Y3	Z3	X4	Y4	Z4	X5	Y5	Z5	X6	Y6	Z6	X7	Y7	Z7	X8	Y8	Z8	X9	Y9	Z9	X10	Y10	Z10	X11	Y11	Z11	X12	Y12	Z12	X13	Y13	Z13	X14	Y14	Z14	X15	Y15	Z15	X16	Y16	Z16	X17	Y17	Z17	X18	Y18	Z18	X19	Y19	Z19	X20	Y20	Z20	X21	Y21	Z21	X22	Y22	Z22	X23	Y23	Z23	X24	Y24	Z24	X25	Y25	Z25	X26	Y26	Z26	X27	Y27	Z27	X28	Y28	Z28	X29	Y29	Z29	X30	Y30	Z30	X31	Y31	Z31	X32	Y32	Z32	X33	Y33	Z33	X34	Y34	Z34	X35	Y35	Z35	X36	Y36	Z36	X37	Y37	Z37	X38	Y38	Z38	X39	Y39	Z39	X40	Y40	Z40	X41	Y41	Z41	X42	Y42	Z42	X43	Y43	Z43	X44	Y44	Z44	X45	Y45	Z45	X46	Y46	Z46	X47	Y47	Z47	X48	Y48	Z48
																																																																																																																																																	
70	0.69	-1041.24048	1657.93298	97.88853	-909.8783	1646.15515	103.13613	-1047.63147	1606.99097	231.62715	-918.5686	1600.26636	235.32478	-983.44843	1448.85657	238.21571	-966.10626	1121.19482	282.02084	-988.21979	1367.06506	130.85841	-991.14874	1191.16785	97.41387	-891.01495	1283.54041	310.39377	-1146.08447	1399.06494	198.97156	-1210.34448	1203.69324	254.30026	-1216.27942	1096.6936	289.36566	-1235.65967	946.59442	306.34726	-1192.90601	820.60883	275.39935	-1229.05139	831.5517	336.77808	-1227.58252	741.82544	318.90225	-825.61401	1407.03699	164.62923	-726.10114	1212.15759	180.03032	-708.02008	1095.02795	152.22969	-693.82983	991.43353	93.71819	-734.24982	891.92078	-15.33866	-692.18372	869.35272	31.13604	-692.92474	818.17584	-34.57823	-1077.02368	961.19403	106.06046	-859.25604	962.04614	110.17023	-1054.90308	985.28967	264.38199	-886.46771	990.91431	260.18347	-1149.39233	654.40161	102.72366	-1126.34583	501.78027	44.09307	-1118.48779	248.53447	68.33242	-1080.82495	75.81963	58.83619	-1029.43481	58.75319	91.95944	-1094.80969	51.58991	-82.5394	-811.49847	629.68042	199.87355	-831.61853	504.24854	216.9232	-837.97998	252.56081	315.27432	-887.42114	71.75794	361.69812	-932.53217	50.81121	404.35074	-880.7196	30.34151	212.52309	-985.90869	1698.56702	199.02063	NaN	NaN	NaN	NaN	NaN	NaN	NaN	NaN	NaN	NaN	NaN	NaN	NaN	NaN	NaN	NaN	NaN	NaN	NaN	NaN	NaN	NaN	NaN	NaN
71	0.7	-1042.22253	1656.13086	87.75222	-910.75214	1644.61511	92.85925	-1048.44324	1605.22729	221.41434	-919.3576	1598.67639	225.19263	-984.14948	1447.17456	228.05411	-966.74408	1119.61572	272.29459	-988.90936	1365.37256	120.77694	-991.53979	1189.44873	87.41958	-891.63776	1282.01135	300.37741	-1146.70972	1397.43787	189.14308	-1210.49597	1202.77429	246.39656	-1216.19934	1096.15491	282.67435	-1235.29163	946.26569	301.63339	-1192.66638	819.98132	271.85355	-1228.38086	831.60791	333.48132	-1227.14856	741.57672	316.97177	-826.37469	1405.53162	154.62947	-726.64313	1210.83801	169.30785	-708.33105	1093.90503	141.04947	-694.25275	991.19537	81.18117	-735.09741	893.53705	-29.23658	-692.95813	870.1405	16.74011	-693.90912	820.06744	-49.82637	-1077.18457	959.73187	95.73106	-859.48071	960.41034	100.73292	-1055.81775	983.69769	254.24335	-887.31921	989.35486	250.71591	-1149.63086	651.92871	94.9044	-1126.2251	499.69586	35.53211	-1119.52075	245.44672	47.42019	-1082.75854	73.17554	28.31509	-1031.49011	54.60562	60.6804	-1095.83777	54.67176	-113.79289	-812.20154	628.44696	192.29793	-832.05145	503.14374	210.75847	-838.63086	252.64912	312.32956	-887.84869	72.42717	361.12592	-933.00708	51.82508	404.00684	-880.7547	30.26129	212.3405	-986.84644	1696.85901	188.85533	NaN	NaN	NaN	NaN	NaN	NaN	NaN	NaN	NaN	NaN	NaN	NaN	NaN	NaN	NaN	NaN	NaN	NaN	NaN	NaN	NaN	NaN	NaN	NaN
72	0.71	-1043.23108	1654.09192	77.52493	-911.64679	1642.8573	82.69276	-1049.34912	1603.36572	211.20499	-920.19116	1596.91992	214.94162	-984.95471	1445.41553	217.83826	-967.63788	1117.89868	262.36688	-989.63116	1363.58643	110.54819	-992.0661	1187.61877	77.46867	-892.33893	1280.38062	290.35242	-1147.40771	1395.70349	179.16191	-1210.7085	1201.80432	238.13956	-1215.93579	1095.57483	275.80527	-1234.9624	945.84222	296.56989	-1192.54932	819.25586	267.83795	-1227.62219	831.44653	329.48114	-1226.41943	741.47064	313.95319	-827.17676	1403.87073	144.52336	-727.1084	1209.38342	158.73431	-708.77246	1092.63562	130.03586	-694.83698	990.81903	68.97073	-736.03436	894.81934	-42.7547	-693.784	870.77222	2.7662	-694.94446	821.6972	-64.59895	-1077.85291	958.33594	84.82124	-859.79761	958.6933	91.35424	-1056.9082	981.87158	244.04672	-888.32831	987.62274	241.19983	-1150.20337	649.21545	87.08912	-1126.15698	497.42096	27.08606	-1120.74976	242.83957	27.18667	-1084.78101	71.47063	-1.24494	-1033.71472	51.76355	30.40406	-1097.07629	59.51142	-145.13564	-812.9339	627.19843	184.6884	-832.54523	501.97824	204.16762	-839.31927	252.67517	309.15326	-888.06769	73.39697	360.57571	-933.4223	52.83031	403.71832	-880.82556	30.1298	212.1747	-987.79248	1695.10095	178.61836	NaN	NaN	NaN	NaN	NaN	NaN	NaN	NaN	NaN	NaN	NaN	NaN	NaN	NaN	NaN	NaN	NaN	NaN	NaN	NaN	NaN	NaN	NaN	NaN
73	0.72	-1044.27515	1652.07654	67.3579	-912.60797	1641.04419	72.45518	-1050.26807	1601.4093	200.93626	-921.13013	1595.06165	204.6427	-985.77509	1443.58057	207.61102	-968.62042	1116.09412	252.46684	-990.4212	1361.71057	100.3516	-992.64063	1185.75085	67.32082	-893.13617	1278.69482	280.31509	-1148.20581	1393.88	168.97437	-1211.09082	1200.7467	229.76422	-1216.03247	1094.85376	268.42679	-1234.77148	945.32086	290.8504	-1192.53772	818.47705	263.20828	-1227.10352	831.34271	325.15906	-1225.98328	741.14282	310.43503	-828.03357	1402.11755	134.39177	-727.79938	1207.74414	148.30775	-709.27631	1091.24719	119.07717	-695.41913	990.21863	56.85733	-737.03107	895.84558	-56.01377	-694.75281	871.1051	-10.97394	-696.09766	822.99677	-78.90962	-1078.19983	956.56561	74.49525	-860.07086	956.87897	81.98138	-1057.98621	979.95703	233.81174	-889.38361	985.80316	231.56734	-1151.2179	646.45789	79.12555	-1126.29333	495.11475	18.72164	-1122.04614	240.81174	7.61462	-1086.77588	70.78242	-29.43666	-1035.87781	49.85152	1.59787	-1098.07166	64.24236	-174.09244	-813.6427	625.92511	176.76929	-833.15027	500.74579	197.12024	-839.95087	252.66039	305.59299	-888.55823	74.0957	359.93701	-933.71735	54.08416	403.36536	-880.88574	30.03078	212.11906	-988.85846	1693.17017	168.43906	NaN	NaN	NaN	NaN	NaN	NaN	NaN	NaN	NaN	NaN	NaN	NaN	NaN	NaN	NaN	NaN	NaN	NaN	NaN	NaN	NaN	NaN	NaN	NaN
